M48
INCH
T01C0.0600
T02C0.0300
T03C0.0400
T04C0.1200
%
T01
X-022500Y+034500
X-022500Y+033500
X-020500Y+034500
X-020500Y+033500
T02
X-008500Y+019500
X-007500Y+019500
X-006500Y+019500
X-005500Y+019500
X-004500Y+019500
X-003500Y+019500
X-002500Y+019500
X-001500Y+019500
X-000500Y+019500
X-000500Y+022500
X-001500Y+022500
X-002500Y+022500
X-003500Y+022500
X-004500Y+022500
X-005500Y+022500
X-006500Y+022500
X-007500Y+022500
X-008500Y+022500
X+005500Y+023000
X+009500Y+023000
X+005500Y+020000
X+009500Y+020000
X+005500Y+021500
X+009500Y+021500
X+005500Y+015500
X+009500Y+015500
X+005500Y+017000
X+009500Y+017000
X+005500Y+018500
X+009500Y+018500
X-021500Y+018500
X-022500Y+018500
X-023500Y+018500
X-024500Y+018500
X-024500Y+021500
X-023500Y+021500
X-022500Y+021500
X-021500Y+021500
X-013000Y+022000
X-013000Y+026000
X-014500Y+022000
X-014500Y+026000
X-016000Y+022000
X-016000Y+026000
X-017500Y+022000
X-017500Y+026000
X-024000Y+024000
X-024000Y+026000
X-029000Y+026000
X-027000Y+026000
X-029000Y+024000
X-027000Y+024000
X-012000Y+034500
X-016000Y+034500
X-023000Y+012500
X-019000Y+012500
X-003500Y+016000
X-005500Y+016000
X-020500Y+007500
X-020500Y+009500
X-016500Y+009500
X-014500Y+009500
X-004000Y+012000
X-005000Y+012000
X-011000Y+008500
X-007000Y+008500
T03
X+005000Y+035500
X+004000Y+035500
X+010500Y+035500
X+009500Y+035500
X+005000Y+025500
X+004000Y+025500
X+010500Y+030000
X+009500Y+030000
X+005000Y+030000
X+004000Y+030000
X+010500Y+025500
X+009500Y+025500
X-006500Y+037000
X-005500Y+037000
X-004500Y+037000
X-003500Y+037000
X-002500Y+037000
X-014000Y+014500
X-013000Y+014500
X-012000Y+014500
X-010000Y+011000
X-009000Y+011000
T04
X-027430Y+009500
X-026190Y+007640
X-025000Y+009500
M30
